<mxfile host="app.diagrams.net" modified="2024-03-27T11:25:08.803Z" agent="Mozilla/5.0 (Windows NT 10.0; Win64; x64) AppleWebKit/537.36 (KHTML, like Gecko) Chrome/123.0.0.0 Safari/537.36" etag="ivic_XMlT9Cmua3E05Q0" version="23.1.5" type="device">
  <diagram name="Page-1" id="IkNOU4qvNZeMFLoC-P5s">
    <mxGraphModel dx="1050" dy="565" grid="0" gridSize="10" guides="1" tooltips="1" connect="1" arrows="1" fold="1" page="1" pageScale="1" pageWidth="850" pageHeight="1100" math="0" shadow="0">
      <root>
        <mxCell id="0" />
        <mxCell id="1" parent="0" />
        <mxCell id="K6Iv_WKtnVDmeUW49LVT-1" value="&lt;b&gt;Product&lt;/b&gt;" style="rounded=0;whiteSpace=wrap;html=1;fillColor=#F8CECC;strokeColor=#b85450;" vertex="1" parent="1">
          <mxGeometry x="360" y="240" width="130" height="80" as="geometry" />
        </mxCell>
        <mxCell id="K6Iv_WKtnVDmeUW49LVT-2" value="&lt;b&gt;Date&lt;/b&gt;" style="ellipse;whiteSpace=wrap;html=1;" vertex="1" parent="1">
          <mxGeometry x="170" y="170" width="120" height="80" as="geometry" />
        </mxCell>
        <mxCell id="K6Iv_WKtnVDmeUW49LVT-3" value="&lt;b&gt;Name&lt;/b&gt;" style="ellipse;whiteSpace=wrap;html=1;" vertex="1" parent="1">
          <mxGeometry x="410" y="120" width="120" height="80" as="geometry" />
        </mxCell>
        <mxCell id="K6Iv_WKtnVDmeUW49LVT-4" value="&lt;b&gt;Category&lt;/b&gt;" style="ellipse;whiteSpace=wrap;html=1;" vertex="1" parent="1">
          <mxGeometry x="530" y="160" width="120" height="80" as="geometry" />
        </mxCell>
        <mxCell id="K6Iv_WKtnVDmeUW49LVT-5" value="&lt;b&gt;Price&lt;/b&gt;" style="ellipse;whiteSpace=wrap;html=1;" vertex="1" parent="1">
          <mxGeometry x="190" y="260" width="120" height="80" as="geometry" />
        </mxCell>
        <mxCell id="K6Iv_WKtnVDmeUW49LVT-6" value="&lt;b&gt;Size&lt;/b&gt;" style="ellipse;whiteSpace=wrap;html=1;" vertex="1" parent="1">
          <mxGeometry x="530" y="250" width="120" height="80" as="geometry" />
        </mxCell>
        <mxCell id="K6Iv_WKtnVDmeUW49LVT-7" value="&lt;b&gt;Photo&lt;/b&gt;" style="ellipse;whiteSpace=wrap;html=1;" vertex="1" parent="1">
          <mxGeometry x="220" y="350" width="120" height="80" as="geometry" />
        </mxCell>
        <mxCell id="K6Iv_WKtnVDmeUW49LVT-8" value="&lt;b&gt;Sex&lt;/b&gt;" style="ellipse;whiteSpace=wrap;html=1;" vertex="1" parent="1">
          <mxGeometry x="360" y="360" width="120" height="80" as="geometry" />
        </mxCell>
        <mxCell id="K6Iv_WKtnVDmeUW49LVT-9" value="&lt;b&gt;Description&lt;/b&gt;" style="ellipse;whiteSpace=wrap;html=1;" vertex="1" parent="1">
          <mxGeometry x="500" y="340" width="120" height="80" as="geometry" />
        </mxCell>
        <mxCell id="K6Iv_WKtnVDmeUW49LVT-10" value="&lt;b&gt;Id&lt;/b&gt;" style="ellipse;whiteSpace=wrap;html=1;" vertex="1" parent="1">
          <mxGeometry x="280" y="120" width="120" height="80" as="geometry" />
        </mxCell>
        <mxCell id="K6Iv_WKtnVDmeUW49LVT-12" value="" style="endArrow=classic;html=1;rounded=0;exitX=0;exitY=0;exitDx=0;exitDy=0;entryX=0.987;entryY=0.648;entryDx=0;entryDy=0;entryPerimeter=0;" edge="1" parent="1" source="K6Iv_WKtnVDmeUW49LVT-1" target="K6Iv_WKtnVDmeUW49LVT-2">
          <mxGeometry width="50" height="50" relative="1" as="geometry">
            <mxPoint x="400" y="320" as="sourcePoint" />
            <mxPoint x="280" y="220" as="targetPoint" />
            <Array as="points">
              <mxPoint x="360" y="240" />
            </Array>
          </mxGeometry>
        </mxCell>
        <mxCell id="K6Iv_WKtnVDmeUW49LVT-13" value="" style="endArrow=classic;html=1;rounded=0;exitX=0.75;exitY=0;exitDx=0;exitDy=0;" edge="1" parent="1">
          <mxGeometry width="50" height="50" relative="1" as="geometry">
            <mxPoint x="456.5" y="240" as="sourcePoint" />
            <mxPoint x="459" y="200" as="targetPoint" />
          </mxGeometry>
        </mxCell>
        <mxCell id="K6Iv_WKtnVDmeUW49LVT-14" value="" style="endArrow=classic;html=1;rounded=0;entryX=0.083;entryY=0.75;entryDx=0;entryDy=0;entryPerimeter=0;" edge="1" parent="1" target="K6Iv_WKtnVDmeUW49LVT-4">
          <mxGeometry width="50" height="50" relative="1" as="geometry">
            <mxPoint x="490" y="260" as="sourcePoint" />
            <mxPoint x="540" y="210" as="targetPoint" />
          </mxGeometry>
        </mxCell>
        <mxCell id="K6Iv_WKtnVDmeUW49LVT-15" value="" style="endArrow=classic;html=1;rounded=0;entryX=1.007;entryY=0.383;entryDx=0;entryDy=0;entryPerimeter=0;" edge="1" parent="1" source="K6Iv_WKtnVDmeUW49LVT-1" target="K6Iv_WKtnVDmeUW49LVT-5">
          <mxGeometry width="50" height="50" relative="1" as="geometry">
            <mxPoint x="289.28932188134524" y="330" as="sourcePoint" />
            <mxPoint x="289.28932188134524" y="280" as="targetPoint" />
          </mxGeometry>
        </mxCell>
        <mxCell id="K6Iv_WKtnVDmeUW49LVT-16" value="" style="endArrow=classic;html=1;rounded=0;entryX=0.5;entryY=0;entryDx=0;entryDy=0;exitX=0.462;exitY=1;exitDx=0;exitDy=0;exitPerimeter=0;" edge="1" parent="1" source="K6Iv_WKtnVDmeUW49LVT-1" target="K6Iv_WKtnVDmeUW49LVT-8">
          <mxGeometry width="50" height="50" relative="1" as="geometry">
            <mxPoint x="370" y="370" as="sourcePoint" />
            <mxPoint x="420" y="320" as="targetPoint" />
          </mxGeometry>
        </mxCell>
        <mxCell id="K6Iv_WKtnVDmeUW49LVT-17" value="" style="endArrow=classic;html=1;rounded=0;entryX=1;entryY=0;entryDx=0;entryDy=0;exitX=0;exitY=1;exitDx=0;exitDy=0;" edge="1" parent="1" source="K6Iv_WKtnVDmeUW49LVT-1" target="K6Iv_WKtnVDmeUW49LVT-7">
          <mxGeometry width="50" height="50" relative="1" as="geometry">
            <mxPoint x="310" y="370" as="sourcePoint" />
            <mxPoint x="360" y="320" as="targetPoint" />
          </mxGeometry>
        </mxCell>
        <mxCell id="K6Iv_WKtnVDmeUW49LVT-18" value="" style="endArrow=classic;html=1;rounded=0;entryX=0.79;entryY=0.963;entryDx=0;entryDy=0;entryPerimeter=0;exitX=0.311;exitY=-0.017;exitDx=0;exitDy=0;exitPerimeter=0;" edge="1" parent="1" source="K6Iv_WKtnVDmeUW49LVT-1" target="K6Iv_WKtnVDmeUW49LVT-10">
          <mxGeometry width="50" height="50" relative="1" as="geometry">
            <mxPoint x="380" y="250" as="sourcePoint" />
            <mxPoint x="430" y="200" as="targetPoint" />
          </mxGeometry>
        </mxCell>
        <mxCell id="K6Iv_WKtnVDmeUW49LVT-19" value="" style="endArrow=classic;html=1;rounded=0;entryX=0.167;entryY=0.125;entryDx=0;entryDy=0;entryPerimeter=0;exitX=1;exitY=1;exitDx=0;exitDy=0;" edge="1" parent="1" source="K6Iv_WKtnVDmeUW49LVT-1" target="K6Iv_WKtnVDmeUW49LVT-9">
          <mxGeometry width="50" height="50" relative="1" as="geometry">
            <mxPoint x="480" y="370" as="sourcePoint" />
            <mxPoint x="530" y="320" as="targetPoint" />
          </mxGeometry>
        </mxCell>
        <mxCell id="K6Iv_WKtnVDmeUW49LVT-20" value="" style="endArrow=classic;html=1;rounded=0;entryX=0.027;entryY=0.398;entryDx=0;entryDy=0;entryPerimeter=0;exitX=1;exitY=0.5;exitDx=0;exitDy=0;" edge="1" parent="1" source="K6Iv_WKtnVDmeUW49LVT-1" target="K6Iv_WKtnVDmeUW49LVT-6">
          <mxGeometry width="50" height="50" relative="1" as="geometry">
            <mxPoint x="480" y="320" as="sourcePoint" />
            <mxPoint x="530" y="270" as="targetPoint" />
          </mxGeometry>
        </mxCell>
      </root>
    </mxGraphModel>
  </diagram>
</mxfile>
